# xmcd
#
# Track frame offsets:
#	150
#	22793
#	41741
#	55592
#	79102
#	89835
#	108426
#	130584
#	145865
#	162708
#	179621
#	192291
#	213582
#	231559
#	252546
#	271370
#	284352
#
# Disc length: 4122 seconds
#
# Revision: 1
# Processed by: cddbd v1.5.2PL0 Copyright (c) Steve Scherf et al.
# Submitted via: audiograbber 1.83.01
#
DISCID=02101811
DTITLE=Jodlerchörli Schönengrund und Trio Chrüzeggbuebe - Of em Höchhamm
DYEAR=2004
DGENRE=Folklore
TTITLE0=Mis Appezellerländli
TTITLE1=Zäuerli mit de Schelle
TTITLE2=Eine för die Halbliinige
TTITLE3=Am Seealpsee
TTITLE4=De z'Hudle
TTITLE5=Sedel-Zäuerli
TTITLE6=Zwei schöni Ländli
TTITLE7=De Brissago-Oski
TTITLE8=S'isch Herbscht
TTITLE9=E Chläusigs
TTITLE10=Röbi flügt
TTITLE11=Zäuerli
TTITLE12=Heya Volvo
TTITLE13=Of em Hochhamm
TTITLE14=Zäuerli
TTITLE15=Auf froher Fahrt
TTITLE16=Zäuerli
EXTD=
EXTT0=
EXTT1=
EXTT2=
EXTT3=
EXTT4=
EXTT5=
EXTT6=
EXTT7=
EXTT8=
EXTT9=
EXTT10=
EXTT11=
EXTT12=
EXTT13=
EXTT14=
EXTT15=
EXTT16=
PLAYORDER=
